<svg version="1.1" viewBox="0 0 96 96" xmlns="http://www.w3.org/2000/svg" xmlns:xlink="http://www.w3.org/1999/xlink" id="Icons_ShoppingBasket" overflow="hidden"><path d=" M 65.1 75 L 65.9 66 L 77.5 66 L 76 75 L 65.1 75 Z M 18.5 66 L 30.1 66 L 30.9 75 L 20.1 75 L 18.5 66 Z M 28 40 L 28.8 49 L 15.6 49 L 14.1 40 L 28 40 Z M 47.3 20.9 C 47.6 20.6 47.9 20.6 48 20.6 C 48.1 20.6 48.5 20.6 48.7 20.9 L 61.8 33.9 L 34.2 33.9 L 47.3 20.9 Z M 66.9 53 L 79.7 53 L 78.2 62 L 66.2 62 L 66.9 53 Z M 50 62 L 50 53 L 62.9 53 L 62.1 62 L 50 62 Z M 50 66 L 61.8 66 L 61 75 L 50 75 L 50 66 Z M 46 66 L 46 75 L 34.9 75 L 34.1 66 L 46 66 Z M 46 49 L 32.8 49 L 32 40 L 46 40 L 46 49 Z M 50 40 L 64 40 L 63.2 49 L 50 49 L 50 40 Z M 29.8 62 L 17.8 62 L 16.3 53 L 29.1 53 L 29.8 62 Z M 33.1 53 L 46 53 L 46 62 L 33.8 62 L 33.1 53 Z M 80.4 49 L 67.3 49 L 68.1 40 L 82 40 L 80.4 49 Z M 70.2 34 L 70.2 34 L 53 16.7 C 51.7 15.4 49.9 14.6 48 14.6 C 46.1 14.6 44.4 15.3 43.1 16.7 L 25.9 33.9 L 25.8 34 L 7 34 L 14.4 77.7 C 14.7 79.6 16.4 81 18.3 81 L 77.5 81 C 79.4 81 81.1 79.6 81.4 77.7 L 89 34 L 70.2 34 Z"/></svg>