<svg version="1.1" viewBox="0 0 96 96" xmlns="http://www.w3.org/2000/svg" xmlns:xlink="http://www.w3.org/1999/xlink" id="Icons_Projector" overflow="hidden"><path d=" M 84 45.8 L 64 45.8 C 62.9 45.8 62 44.9 62 43.8 C 62 42.7 62.9 41.8 64 41.8 L 84 41.8 C 85.1 41.8 86 42.7 86 43.8 C 86 44.9 85.1 45.8 84 45.8 Z M 84 55.8 L 64 55.8 C 62.9 55.8 62 54.9 62 53.8 C 62 52.7 62.9 51.8 64 51.8 L 84 51.8 C 85.1 51.8 86 52.7 86 53.8 C 86 54.9 85.1 55.8 84 55.8 Z M 39 63.8 C 29.6 63.8 22 56.2 22 46.8 C 22 37.4 29.6 29.8 39 29.8 C 48.4 29.8 56 37.4 56 46.8 C 56 56.2 48.4 63.8 39 63.8 Z M 11 41.3 C 9.9 41.3 9 40.4 9 39.3 C 9 38.2 9.9 37.3 11 37.3 C 12.1 37.3 13 38.2 13 39.3 C 13 40.4 12.1 41.3 11 41.3 Z M 88 32.3 L 86 32.3 L 86 33.8 C 86 34.9 85.1 35.8 84 35.8 C 82.9 35.8 82 34.9 82 33.8 L 82 32.3 L 76 32.3 L 76 33.8 C 76 34.9 75.1 35.8 74 35.8 C 72.9 35.8 72 34.9 72 33.8 L 72 32.3 L 66 32.3 L 66 33.8 C 66 34.9 65.1 35.8 64 35.8 C 62.9 35.8 62 34.9 62 33.8 L 62 32.3 L 54.2 32.3 C 50.2 28.1 44.8 25.8 39 25.8 C 33.3 25.8 27.8 28.1 23.8 32.3 L 8 32.3 C 5.8 32.3 4 34.1 4 36.3 L 4 60.3 C 4 62.5 5.8 64.3 8 64.3 L 14 64.3 L 12 70.3 L 18 70.3 L 20 64.3 L 27.4 64.3 C 34.4 69 43.6 69 50.6 64.3 L 76 64.3 L 78 70.3 L 84 70.3 L 82 64.3 L 88 64.3 C 90.2 64.3 92 62.5 92 60.3 L 92 36.3 C 92 34 90.2 32.3 88 32.3 Z"/><circle cx="39" cy="46.5" r="12.6"/></svg>