<svg version="1.1" viewBox="0 0 96 96" xmlns="http://www.w3.org/2000/svg" xmlns:xlink="http://www.w3.org/1999/xlink" id="Icons_ChampagneGlasses" overflow="hidden"><path d=" M 79 86.08 C 79.26 87.55 74.8 89.52 69.09 90.55 C 63.38 91.58 58.52 91.3 58.25 89.83 C 58.13 89.14 58.97 88.36 60.53 87.63 L 60.62 87.63 C 61.718 87.1424 62.8471 86.7281 64 86.39 C 65.3 85.7 66.3 84.81 66.14 83.94 L 63.26 68.21 C 58.1183 68.2905 53.6763 64.6319 52.77 59.57 L 48 25.56 L 43.23 59.56 C 42.3237 64.6219 37.8817 68.2805 32.74 68.2 L 29.9 83.94 C 29.74 84.81 30.74 85.7 32.04 86.39 C 33.1824 86.7261 34.3015 87.137 35.39 87.62 L 35.48 87.62 C 37.04 88.35 37.88 89.13 37.76 89.82 C 37.49 91.29 32.62 91.57 26.92 90.54 C 21.22 89.51 16.75 87.54 17.01 86.07 C 17.14 85.38 18.28 84.96 19.92 84.81 C 21.134 84.6958 22.356 84.6958 23.57 84.81 C 25.03 84.63 26.28 84.14 26.44 83.28 L 29.28 67.55 C 24.4567 65.7976 21.5889 60.8339 22.48 55.78 L 31.64 14.5 C 31.8196 13.5841 32.7076 12.9871 33.6236 13.1667 C 33.629 13.1678 33.6345 13.1689 33.64 13.17 L 47.64 15.7 C 47.7529 15.718 47.8636 15.7482 47.97 15.79 C 48.0764 15.7482 48.1871 15.718 48.3 15.7 L 62.3 13.17 C 63.2141 12.9814 64.108 13.5695 64.2967 14.4836 C 64.2978 14.489 64.2989 14.4945 64.3 14.5 L 73.46 55.78 C 74.3511 60.8339 71.4833 65.7976 66.66 67.55 L 69.5 83.28 C 69.66 84.14 70.91 84.63 72.37 84.81 C 73.584 84.6958 74.806 84.6958 76.02 84.81 C 77.72 85 78.86 85.39 79 86.08 Z M 31 57 C 31 55.8954 30.1046 55 29 55 C 27.8954 55 27 55.8954 27 57 C 27 58.1046 27.8954 59 29 59 C 30.1046 59 31 58.1046 31 57 Z M 35 40.5 C 35 39.6716 34.3284 39 33.5 39 C 32.6716 39 32 39.6716 32 40.5 C 32 41.3284 32.6716 42 33.5 42 C 34.3284 42 35 41.3284 35 40.5 Z M 40 49.5 C 40 48.6716 39.3284 48 38.5 48 C 37.6716 48 37 48.6716 37 49.5 C 37 50.3284 37.6716 51 38.5 51 C 39.3284 51 40 50.3284 40 49.5 Z M 45.4 18.9 L 34.68 17 L 30.9 34.06 L 43.27 34.06 Z M 62 56.5 C 62 55.6716 61.3284 55 60.5 55 C 59.6716 55 59 55.6716 59 56.5 C 59 57.3284 59.6716 58 60.5 58 C 61.3284 58 62 57.3284 62 56.5 Z M 65 47 C 65 45.8954 64.1046 45 63 45 C 61.8954 45 61 45.8954 61 47 C 61 48.1046 61.8954 49 63 49 C 64.1046 49 65 48.1046 65 47 Z M 65.1 34.06 L 61.32 17 L 50.6 18.9 L 52.73 34.06 Z"/><path d=" M 47 11 L 47 6 C 47 5.44772 47.4477 5 48 5 C 48.5523 5 49 5.44772 49 6 L 49 11 C 49 11.5523 48.5523 12 48 12 C 47.4477 12 47 11.5523 47 11 Z"/><path d=" M 43.06 12 C 43.2471 12.1909 43.5028 12.2989 43.77 12.3 C 44.3223 12.2977 44.7681 11.8481 44.7658 11.2958 C 44.7647 11.0306 44.6583 10.7767 44.47 10.59 L 40.94 7 C 40.5205 6.64076 39.8892 6.6896 39.53 7.10909 C 39.2094 7.48346 39.2094 8.03562 39.53 8.41 Z"/><path d=" M 52.23 12.27 C 52.4972 12.2689 52.7529 12.1609 52.94 11.97 L 56.47 8.44 C 56.8676 8.05064 56.8744 7.41264 56.485 7.015 C 56.0956 6.61735 55.4576 6.61064 55.06 7 L 51.53 10.53 C 51.1379 10.9189 51.1353 11.5521 51.5242 11.9442 C 51.7109 12.1325 51.9648 12.2389 52.23 12.24 Z"/></svg>